<?xml version="1.0" standalone="no"?>
<!DOCTYPE svg PUBLIC "-//W3C//DTD SVG 20010904//EN"
 "http://www.w3.org/TR/2001/REC-SVG-20010904/DTD/svg10.dtd">
<svg version="1.0" xmlns="http://www.w3.org/2000/svg"
 width="400.000000pt" height="400.000000pt" viewBox="0 0 400.000000 400.000000"
 preserveAspectRatio="xMidYMid meet">

<g transform="translate(0.000000,400.000000) scale(0.100000,-0.100000)"
fill="#000000" stroke="none">
<path d="M2461 3539 c-66 -13 -169 -48 -232 -80 -141 -70 -310 -230 -714 -674
-115 -126 -293 -320 -395 -430 -398 -428 -417 -452 -476 -579 -166 -360 -103
-762 165 -1048 172 -183 391 -278 643 -278 207 0 397 65 548 187 75 61 323
319 625 653 87 96 279 306 426 466 148 159 285 311 305 338 47 62 119 215 139
296 26 103 31 317 10 425 -32 175 -108 323 -229 453 -130 138 -293 232 -458
266 -83 17 -281 20 -357 5z m269 -129 c349 -55 601 -322 641 -677 25 -223 -33
-442 -154 -583 -16 -19 -80 -87 -141 -150 -61 -64 -160 -169 -221 -235 -60
-66 -136 -147 -167 -180 l-56 -59 -94 89 c-200 192 -662 638 -831 803 l-178
175 33 36 c18 20 69 74 113 121 44 47 136 146 204 220 266 288 340 348 494
401 135 47 236 58 357 39z m-1050 -1200 c123 -118 278 -267 344 -330 66 -63
171 -165 234 -226 l115 -110 -54 -60 c-30 -32 -91 -97 -136 -144 -44 -47 -114
-121 -155 -165 -108 -118 -217 -226 -266 -263 -142 -110 -372 -149 -572 -97
-183 48 -375 197 -451 351 -34 68 -34 70 -34 209 0 159 18 243 79 363 51 101
32 79 565 634 64 67 76 76 91 65 9 -7 118 -109 240 -227z"/>
</g>
</svg>
